<svg fill="var(--main-color)" width="25px" height="25px" xmlns="http://www.w3.org/2000/svg" viewBox="0 0 455.978 455.978" xml:space="preserve">
  <path d="M335.954 169.698V58.679H144.918v111.02h191.036zM159.918 73.679h161.036v81.02H159.918v-81.02z"/>
  <path d="M175.939 89.519h128.993v15H175.939zM175.939 119.517h128.993v15H175.939z"/>
  <path d="M391.076 0H104.224C82.542 0 64.902 17.64 64.902 39.323l.003 332.514c0 21.68 17.638 39.318 39.318 39.318h22.913v44.823h55.897v-44.823H391.07L391.076 0zm-15 332.506H111.724V15h264.352v317.506zM96.724 16.189v317.032a38.901 38.901 0 0 0-16.822 7.715V39.323c0-10.795 7.071-19.965 16.822-23.134zm7.499 379.966c-13.409 0-24.318-10.909-24.318-24.318 0-6.505 2.529-12.617 7.122-17.209 4.592-4.592 10.699-7.121 17.196-7.121h22.913v48.648h-22.913zm37.913 44.823v-93.472h25.897v93.472h-25.897zm233.935-44.823H183.034v-48.648h193.037v48.648z"/>
</svg>
